<svg width="22" height="22" viewBox="0 0 22 22" fill="none" xmlns="http://www.w3.org/2000/svg">
<path d="M9.53333 3.11667H0.366666V5.86667H9.53333V3.11667Z" fill="white"/>
<path d="M22 20.7167V17.9667H12.8333V20.7167H22Z" fill="white"/>
<path d="M22 15.95V13.2H12.8333V15.95H22Z" fill="white"/>
<path d="M6.41667 22H3.66667V18.3333H0V15.5833H3.66667V11.9167H6.41667V15.5833H10.0833V18.3333H6.41667V22Z" fill="white"/>
<path d="M17.4167 6.41667L14.85 8.98333L12.8333 7.15L15.4 4.58333L12.8333 2.01667L14.85 0L17.4167 2.56667L19.9833 0L22 2.01667L19.4333 4.58333L22 7.15L19.9833 8.98333L17.4167 6.41667Z" fill="white"/>
</svg>
