<svg width="21" height="14" viewBox="0 0 21 14" fill="none" xmlns="http://www.w3.org/2000/svg">
<path fill-rule="evenodd" clip-rule="evenodd" d="M1.08579 0.585786C0.5 1.17157 0.5 2.11438 0.5 4V10C0.5 11.8856 0.5 12.8284 1.08579 13.4142C1.67157 14 2.61438 14 4.5 14H16.5C18.3856 14 19.3284 14 19.9142 13.4142C20.5 12.8284 20.5 11.8856 20.5 10V4C20.5 2.11438 20.5 1.17157 19.9142 0.585786C19.3284 0 18.3856 0 16.5 0H4.5C2.61438 0 1.67157 0 1.08579 0.585786ZM3.5 2C2.94772 2 2.5 2.44772 2.5 3C2.5 3.55228 2.94772 4 3.5 4H5.5C6.05228 4 6.5 3.55228 6.5 3C6.5 2.44772 6.05228 2 5.5 2H3.5ZM14.5 11C14.5 10.4477 14.9477 10 15.5 10H17.5C18.0523 10 18.5 10.4477 18.5 11C18.5 11.5523 18.0523 12 17.5 12H15.5C14.9477 12 14.5 11.5523 14.5 11ZM11.5 7C11.5 7.55228 11.0523 8 10.5 8C9.94772 8 9.5 7.55228 9.5 7C9.5 6.44772 9.94772 6 10.5 6C11.0523 6 11.5 6.44772 11.5 7ZM13.5 7C13.5 8.65685 12.1569 10 10.5 10C8.84315 10 7.5 8.65685 7.5 7C7.5 5.34315 8.84315 4 10.5 4C12.1569 4 13.5 5.34315 13.5 7Z" fill="#FFFBFE"/>
<path fill-rule="evenodd" clip-rule="evenodd" d="M1.08579 0.585786C0.5 1.17157 0.5 2.11438 0.5 4V10C0.5 11.8856 0.5 12.8284 1.08579 13.4142C1.67157 14 2.61438 14 4.5 14H16.5C18.3856 14 19.3284 14 19.9142 13.4142C20.5 12.8284 20.5 11.8856 20.5 10V4C20.5 2.11438 20.5 1.17157 19.9142 0.585786C19.3284 0 18.3856 0 16.5 0H4.5C2.61438 0 1.67157 0 1.08579 0.585786ZM3.5 2C2.94772 2 2.5 2.44772 2.5 3C2.5 3.55228 2.94772 4 3.5 4H5.5C6.05228 4 6.5 3.55228 6.5 3C6.5 2.44772 6.05228 2 5.5 2H3.5ZM14.5 11C14.5 10.4477 14.9477 10 15.5 10H17.5C18.0523 10 18.5 10.4477 18.5 11C18.5 11.5523 18.0523 12 17.5 12H15.5C14.9477 12 14.5 11.5523 14.5 11ZM11.5 7C11.5 7.55228 11.0523 8 10.5 8C9.94772 8 9.5 7.55228 9.5 7C9.5 6.44772 9.94772 6 10.5 6C11.0523 6 11.5 6.44772 11.5 7ZM13.5 7C13.5 8.65685 12.1569 10 10.5 10C8.84315 10 7.5 8.65685 7.5 7C7.5 5.34315 8.84315 4 10.5 4C12.1569 4 13.5 5.34315 13.5 7Z" fill="#6750A4" fill-opacity="0.05"/>
</svg>
