<svg width="284" height="284" viewBox="0 0 284 284" fill="none" xmlns="http://www.w3.org/2000/svg">
<path d="M80.3606 145.749L81.4966 145.874C91.0163 146.925 100.411 142.812 105.71 134.94C106.393 133.927 107 132.866 107.528 131.765C109.387 127.731 110.221 123.301 109.956 118.868C109.692 114.435 108.337 110.136 106.011 106.352C103.234 101.911 99.0705 98.0595 98.0936 92.9361C96.8326 86.2735 101.377 80.105 105.648 74.8908C109.919 69.6766 114.452 63.4967 113.157 56.8341C112.35 52.6649 109.3 49.1945 105.773 46.7691C96.4521 40.3564 83.6493 40.4359 73.5617 45.3093C63.474 50.1828 55.9537 59.2538 51.0007 69.2846C44.0938 83.3369 41.9127 100.093 46.9793 115.048C52.0458 130.004 64.8542 142.67 80.3606 145.749Z" fill="#F5F5F5"/>
<path d="M217.027 41.0607C208.359 29.093 195.483 20.448 180.499 21.3909L181.334 21.3511C179.241 21.1824 177.135 21.4552 175.154 22.152L175.006 22.1804H175.103C168.38 24.198 162.709 28.7585 159.296 34.8922C157.047 39.2013 156.006 44.0382 156.282 48.8907C156.558 53.7433 158.141 58.431 160.863 62.4573C164.135 67.1603 168.986 70.8864 170.968 76.2597C173.2 82.3089 171.303 89.1306 172.598 95.4467C175.018 107.301 189.03 114.372 200.833 111.714C212.636 109.056 221.634 98.8036 225.729 87.4152C231.335 71.8066 226.734 54.4712 217.027 41.0607Z" fill="#F5F5F5"/>
<path d="M181.749 166.81C192.769 166.81 201.702 157.877 201.702 146.856C201.702 135.836 192.769 126.903 181.749 126.903C170.728 126.903 161.795 135.836 161.795 146.856C161.795 157.877 170.728 166.81 181.749 166.81Z" fill="#F5F5F5"/>
<path d="M98.2811 242.076H63.8433V246.807H98.2811V242.076Z" fill="#263238"/>
<path d="M98.3435 246.864H63.7864V242.013H98.3435V246.864ZM63.9057 246.745H98.2242V242.133H63.9057V246.745Z" fill="#263238"/>
<path d="M67.0354 245.228L71.994 269.686H90.3348L95.1287 246.807L67.0354 245.228Z" fill="#263238"/>
<path d="M67.0354 267.375L69.6823 271.01H91.9763L95.1287 267.375H67.0354Z" fill="#455A64"/>
<path d="M79.77 245.944C79.7018 245.944 79.6166 234.612 79.5769 220.64C79.5371 206.667 79.5769 195.335 79.628 195.335C79.6791 195.335 79.7813 206.661 79.8211 220.64C79.8609 234.618 79.8381 245.944 79.77 245.944Z" fill="#263238"/>
<path d="M87.472 217.589C87.4481 217.681 87.4157 217.771 87.3755 217.856L87.0688 218.589L86.8472 219.117C86.7734 219.316 86.6996 219.532 86.6144 219.759C86.5292 219.986 86.444 220.236 86.3531 220.498C86.2622 220.759 86.1884 221.066 86.0975 221.338C85.6887 222.722 85.3662 224.129 85.1319 225.553C84.8646 227.302 84.6864 229.063 84.598 230.83C84.4713 234.051 84.5624 237.277 84.8706 240.486C84.9842 241.712 85.0921 242.706 85.1773 243.394C85.2114 243.712 85.2398 243.962 85.2625 244.183C85.2701 244.276 85.2701 244.369 85.2625 244.462C85.2266 244.375 85.2055 244.283 85.2 244.189C85.1603 243.984 85.1205 243.723 85.0637 243.405C84.9558 242.723 84.8138 241.729 84.6832 240.503C84.3236 237.297 84.2078 234.069 84.3367 230.847C84.4273 229.071 84.6169 227.302 84.9047 225.547C85.1464 224.114 85.488 222.7 85.9271 221.316C86.0236 221.02 86.0975 220.748 86.1997 220.475C86.302 220.202 86.3928 219.969 86.4837 219.742C86.5746 219.515 86.6541 219.299 86.7336 219.1C86.8132 218.902 86.9041 218.737 86.9779 218.578C87.1199 218.288 87.2335 218.05 87.33 217.862C87.3627 217.764 87.4106 217.672 87.472 217.589Z" fill="#263238"/>
<path d="M86.5632 208.456C86.5331 208.583 86.4952 208.708 86.4496 208.831C86.3644 209.092 86.2451 209.444 86.0918 209.882C86.0122 210.115 85.927 210.37 85.8305 210.643C85.7339 210.915 85.6544 211.211 85.5522 211.557C85.3534 212.216 85.1205 212.96 84.9103 213.795C84.8024 214.216 84.6831 214.653 84.5638 215.107C84.4446 215.562 84.3537 216.044 84.2401 216.539C84.0015 217.527 83.8311 218.595 83.6039 219.714C83.229 221.986 82.8939 224.451 82.661 227.098C82.4282 229.745 82.3486 232.21 82.3146 234.516C82.2805 236.822 82.3146 238.861 82.4338 240.582C82.4622 241.445 82.519 242.224 82.5645 242.911C82.6099 243.598 82.644 244.183 82.6894 244.666C82.7349 245.149 82.7519 245.501 82.7746 245.774C82.7847 245.904 82.7847 246.035 82.7746 246.166C82.7419 246.039 82.721 245.91 82.7122 245.779C82.6781 245.507 82.6383 245.137 82.5815 244.677C82.5247 244.217 82.4679 243.604 82.4168 242.922C82.3657 242.241 82.2862 241.457 82.2464 240.593C82.1328 238.889 82.0817 236.805 82.076 234.516C82.0703 232.227 82.1896 229.711 82.4054 227.081C82.6213 224.451 82.9734 221.969 83.371 219.697C83.5982 218.561 83.78 217.504 84.0299 216.516C84.1473 216.02 84.2609 215.543 84.3707 215.085C84.4957 214.63 84.615 214.193 84.7342 213.772C84.9501 212.938 85.1943 212.193 85.4102 211.54C85.5181 211.216 85.6146 210.91 85.7055 210.626C85.7964 210.342 85.9043 210.103 85.9895 209.876C86.1599 209.439 86.2962 209.092 86.3928 208.837C86.4366 208.704 86.4937 208.577 86.5632 208.456Z" fill="#263238"/>
<path d="M77.5945 247.949C77.5889 247.906 77.5889 247.862 77.5945 247.818C77.5945 247.716 77.5832 247.586 77.5605 247.426C77.5605 247.063 77.5037 246.563 77.4639 245.927C77.3787 244.604 77.2594 242.723 77.1174 240.406C76.8164 235.748 76.3847 229.313 75.6009 222.23C75.2033 218.691 74.7375 215.329 74.2547 212.279C73.9991 210.762 73.7662 209.314 73.4992 207.968C73.2323 206.621 72.9937 205.366 72.7552 204.224C72.5166 203.083 72.2781 202.055 72.0736 201.152C71.8691 200.248 71.6817 199.448 71.5056 198.834C71.3295 198.221 71.2329 197.726 71.1477 197.374C71.108 197.221 71.0796 197.096 71.0569 196.994C71.0341 196.892 71.0569 196.863 71.0569 196.863C71.0806 196.902 71.0979 196.944 71.108 196.988L71.2159 197.363L71.5681 198.8C71.7441 199.43 71.9486 200.203 72.1361 201.106C72.3235 202.009 72.6132 203.032 72.8517 204.173C73.0903 205.315 73.3743 206.565 73.6242 207.916C73.8741 209.268 74.1411 210.711 74.4024 212.233C74.8965 215.283 75.368 218.646 75.7712 222.19C76.5551 229.273 76.9584 235.72 77.214 240.366C77.3446 242.701 77.4298 244.586 77.4809 245.893C77.5093 246.529 77.5264 247.029 77.5377 247.398C77.5377 247.557 77.5377 247.682 77.5377 247.784C77.5605 247.838 77.5795 247.893 77.5945 247.949Z" fill="#263238"/>
<path d="M79.52 200.782C79.3666 199.181 77.7478 197.942 76.112 197.942C75.3047 197.98 74.5165 198.2 73.8063 198.586C73.0961 198.971 72.4823 199.512 72.011 200.169C71.0827 201.493 70.4121 202.981 70.0344 204.554C68.8617 208.322 68.4504 212.286 68.8245 216.215C69.2846 220.123 70.8693 223.968 73.6753 226.729C74.1297 227.177 74.7204 227.626 75.3452 227.49C75.6846 227.384 75.9889 227.187 76.2256 226.922C78.9711 224.41 81.1477 221.34 82.6093 217.918C84.071 214.496 84.7839 210.802 84.7001 207.081C84.6547 205.593 84.4616 204.048 83.638 202.81C82.8144 201.572 80.8945 200.26 79.4973 200.754" fill="#455A64"/>
<path d="M79.628 195.335L59.18 183.254C58.9552 183.155 58.7764 182.974 58.6802 182.748C58.6006 182.447 58.8278 182.18 59.0494 181.93C60.4568 180.47 62.1625 179.33 64.0503 178.588C65.9381 177.846 67.9637 177.519 69.989 177.631C72.0139 177.775 73.9731 178.411 75.6971 179.483C77.4211 180.554 78.8581 182.03 79.8836 183.782C81.8602 187.315 81.9227 191.984 79.6564 195.335" fill="#455A64"/>
<path d="M62.1051 179.397L62.3721 179.363C62.5481 179.363 62.8094 179.323 63.1445 179.329C64.0961 179.313 65.0469 179.388 65.9845 179.55C69.1075 180.079 72.0143 181.49 74.3629 183.615C76.7116 185.74 78.4042 188.492 79.2417 191.547C79.4948 192.463 79.664 193.4 79.7472 194.347C79.757 194.536 79.757 194.726 79.7472 194.915C79.7321 195.074 79.6796 195.228 79.5938 195.364C79.6464 195.021 79.6464 194.672 79.5938 194.33C79.4802 193.394 79.2902 192.469 79.0258 191.564C78.1665 188.558 76.4825 185.852 74.1645 183.754C71.8466 181.656 68.9873 180.249 65.9107 179.692C64.9734 179.518 64.0238 179.417 63.0707 179.391C62.48 179.408 62.1051 179.42 62.1051 179.397Z" fill="#263238"/>
<path d="M76.8561 186.997C76.5309 187.193 76.184 187.352 75.8224 187.468C75.1692 187.724 74.2604 188.036 73.238 188.377C72.2156 188.718 71.284 188.945 70.6024 189.127C70.2336 189.243 69.8522 189.313 69.4664 189.337C69.8107 189.175 70.1703 189.047 70.54 188.957L73.1471 188.144L75.7485 187.304C76.1055 187.162 76.4769 187.059 76.8561 186.997Z" fill="#263238"/>
<path d="M73.6299 178.352C73.8144 179.095 73.8966 179.859 73.8741 180.624C73.9306 181.384 73.8886 182.147 73.7491 182.896C73.6504 182.143 73.6106 181.383 73.6299 180.624C73.5692 179.868 73.5692 179.108 73.6299 178.352Z" fill="#263238"/>
<path d="M58.9755 183.027C59.4543 182.807 59.9525 182.632 60.4636 182.504C61.3895 182.214 62.6845 181.851 64.1329 181.504C65.5813 181.158 66.8934 180.891 67.8533 180.721C68.3665 180.603 68.8893 180.533 69.4153 180.51C68.9158 180.674 68.4052 180.801 67.8874 180.891C66.9388 181.101 65.6154 181.396 64.1897 181.743C62.764 182.089 61.4519 182.425 60.5091 182.669C60.0071 182.825 59.4946 182.944 58.9755 183.027Z" fill="#263238"/>
<path d="M71 197.3C69.2392 195.966 67.3819 195.704 65.1724 195.79C62.9603 195.936 60.7951 196.495 58.788 197.437C55.3346 198.948 52.0913 201.18 50.0295 204.332C47.9676 207.485 47.2463 211.665 48.7912 215.124C48.9113 215.483 49.1602 215.785 49.4899 215.971C49.8671 216.073 50.2682 216.043 50.6259 215.885C54.5508 214.602 58.504 213.312 62.1165 211.302C65.729 209.291 69.012 206.508 70.9489 202.861C71.4495 202.002 71.7667 201.049 71.8804 200.061C71.9334 199.567 71.8802 199.067 71.7245 198.595C71.5687 198.122 71.314 197.689 70.9773 197.323" fill="#455A64"/>
<path d="M71.0284 196.886C70.9367 196.931 70.8418 196.969 70.7444 196.999L69.9208 197.283L69.3528 197.482L68.6599 197.755C68.16 197.954 67.5863 198.158 66.9559 198.448L65.9903 198.891C65.6552 199.044 65.3257 199.232 64.9679 199.413C64.2579 199.76 63.5365 200.209 62.7697 200.663C59.4766 202.704 56.5472 205.28 54.102 208.286C53.534 208.984 53.0228 209.643 52.5855 210.308C52.3583 210.631 52.1311 210.938 51.9323 211.251C51.7335 211.563 51.5574 211.864 51.3643 212.148C50.9951 212.716 50.7224 213.284 50.4612 213.727C50.3305 213.966 50.2056 214.181 50.1033 214.386L49.8307 214.954C49.6716 215.278 49.5467 215.522 49.4444 215.732C49.4048 215.826 49.3553 215.916 49.2968 215.999C49.3191 215.901 49.3535 215.805 49.399 215.715L49.7455 214.914C49.8212 214.736 49.9064 214.547 50.0011 214.346C50.0976 214.142 50.2169 213.92 50.3419 213.682C50.5918 213.204 50.8531 212.654 51.2166 212.08L51.7846 211.165C51.9777 210.847 52.2049 210.541 52.4264 210.205C52.8638 209.535 53.392 208.871 53.9373 208.155C55.159 206.64 56.4959 205.221 57.936 203.912C59.4078 202.641 60.9764 201.486 62.6277 200.459C63.4059 200.01 64.1329 199.567 64.8543 199.22C65.2121 199.044 65.5472 198.857 65.888 198.709L66.8593 198.277C67.4784 197.993 68.0635 197.806 68.5633 197.613C68.8189 197.522 69.0518 197.431 69.2676 197.363L69.8754 197.181L70.7104 196.943C70.8144 196.914 70.9209 196.895 71.0284 196.886Z" fill="#263238"/>
<path d="M57.2658 204.338C55.8639 204.874 54.4343 205.335 52.9831 205.718C51.5544 206.175 50.102 206.555 48.6322 206.854C50.0345 206.319 51.464 205.858 52.9149 205.474C54.3426 205.014 55.7952 204.634 57.2658 204.338Z" fill="#263238"/>
<path d="M57.0897 213.79C57.0204 213.348 56.99 212.901 56.9988 212.455C56.9988 211.631 56.9988 210.489 56.9988 209.228C56.9988 207.968 57.1067 206.832 57.1749 206.008C57.1872 205.561 57.2423 205.116 57.3396 204.679C57.3777 205.125 57.3777 205.573 57.3396 206.019C57.3396 206.922 57.2771 208.019 57.243 209.234C57.2089 210.45 57.1805 211.552 57.1578 212.455C57.1805 212.901 57.1576 213.348 57.0897 213.79Z" fill="#263238"/>
<path d="M65.1894 209.66C65.1212 209.66 64.9054 207.348 64.7066 204.486C64.5078 201.623 64.4056 199.3 64.4737 199.294C64.5419 199.288 64.7577 201.606 64.9508 204.469C65.144 207.331 65.2576 209.66 65.1894 209.66Z" fill="#263238"/>
<path d="M55.0961 199.067C55.5522 199.013 56.0122 199 56.4706 199.027C57.3169 199.027 58.487 199.056 59.7764 199.101C61.0657 199.146 62.2358 199.198 63.0821 199.243C63.5417 199.246 63.9999 199.292 64.451 199.379C63.9949 199.433 63.5349 199.446 63.0765 199.419C62.2302 199.419 61.0601 199.385 59.7707 199.345C58.4814 199.306 57.3113 199.249 56.465 199.198C56.0055 199.198 55.5472 199.154 55.0961 199.067Z" fill="#263238"/>
<path d="M74.5501 227.268C74.5233 227.18 74.5118 227.088 74.516 226.996C74.516 226.791 74.5046 226.53 74.4819 226.212C74.4819 225.524 74.4421 224.536 74.4819 223.309C74.5217 222.082 74.5898 220.628 74.7318 219.015C74.8738 217.402 75.1237 215.636 75.4532 213.795C75.7826 211.955 76.2029 210.217 76.6176 208.649C77.0322 207.081 77.4866 205.69 77.8956 204.531C78.3045 203.372 78.6624 202.447 78.9293 201.816C79.06 201.521 79.1622 201.276 79.2417 201.089C79.276 201.002 79.3178 200.919 79.3667 200.839C79.3517 200.931 79.3249 201.021 79.2872 201.106C79.219 201.299 79.1281 201.543 79.0202 201.85C78.776 202.486 78.4522 203.424 78.0603 204.588C77.6684 205.752 77.2537 207.144 76.8391 208.706C76.4245 210.268 76.0325 212 75.7031 213.818C75.3737 215.636 75.1351 217.413 74.9647 219.021C74.7943 220.628 74.7034 222.077 74.658 223.298C74.6125 224.519 74.5955 225.507 74.5955 226.189C74.5955 226.513 74.5955 226.757 74.5955 226.978C74.589 227.076 74.5738 227.173 74.5501 227.268Z" fill="#263238"/>
<path d="M75.6292 213.863C75.3886 214.19 75.1144 214.491 74.8113 214.761C74.2831 215.289 73.5276 215.999 72.6699 216.749C71.8123 217.499 71.0114 218.157 70.3979 218.612C70.0934 218.879 69.76 219.112 69.4039 219.305C69.6722 219.002 69.9689 218.727 70.29 218.481L72.4938 216.567L74.675 214.636C74.9669 214.348 75.2865 214.089 75.6292 213.863Z" fill="#263238"/>
<path d="M82.1101 219.083C81.784 218.709 81.4931 218.306 81.241 217.879L79.2133 214.926L77.1514 212.006C76.8424 211.616 76.5651 211.202 76.3221 210.768C76.6771 211.117 77.0002 211.497 77.2878 211.904C77.8558 212.625 78.6169 213.642 79.4178 214.795C80.2186 215.948 80.9059 217.01 81.383 217.794C81.6637 218.201 81.907 218.632 82.1101 219.083Z" fill="#263238"/>
<path d="M78.7135 202.668C78.7475 202.725 76.5948 204.173 73.9025 205.906C71.2102 207.638 69.0007 208.99 68.9666 208.933C68.9325 208.876 71.0796 207.428 73.7719 205.696C76.4642 203.963 78.6737 202.611 78.7135 202.668Z" fill="#263238"/>
<path d="M84.7854 209.217C83.6422 208.278 82.5537 207.275 81.525 206.212C80.442 205.205 79.4126 204.141 78.4408 203.026C79.583 203.968 80.6715 204.973 81.7011 206.036C82.7848 207.041 83.8143 208.103 84.7854 209.217Z" fill="#263238"/>
<path d="M86.3361 209.086L88.1877 208.933C89.4992 208.829 90.7725 208.441 91.9195 207.797C92.48 207.47 93.0605 207.177 93.6576 206.922C95.9296 206.008 98.4913 206.173 100.951 206.048C104.978 205.845 108.924 204.837 112.555 203.083C112.767 202.985 112.943 202.824 113.06 202.623C113.441 201.93 112.737 201.316 112.129 200.919C109.016 198.999 105.847 197.056 102.314 196.102C98.7809 195.148 94.7765 195.312 91.7605 197.386C88.2275 199.822 86.9381 204.821 86.3361 209.069" fill="#455A64"/>
<path d="M113.072 202.39C112.964 202.349 112.859 202.3 112.759 202.242L111.885 201.782C111.124 201.384 110.027 200.794 108.647 200.135C107.039 199.341 105.362 198.695 103.637 198.204C101.525 197.592 99.312 197.409 97.128 197.664C94.947 197.909 92.8875 198.794 91.2094 200.209C89.897 201.426 88.8474 202.899 88.1252 204.537C87.4777 205.917 87.0801 207.098 86.7847 207.905L86.4553 208.837C86.4233 208.946 86.3814 209.053 86.3303 209.155C86.3432 209.04 86.3699 208.928 86.4098 208.82C86.4837 208.581 86.5802 208.252 86.6938 207.871C87.0534 206.711 87.4802 205.573 87.9718 204.463C88.681 202.79 89.7314 201.283 91.0561 200.038C92.7741 198.582 94.889 197.674 97.128 197.431C99.3382 197.176 101.577 197.369 103.711 197.999C105.444 198.51 107.126 199.177 108.738 199.993C110.112 200.68 111.197 201.294 111.941 201.697L112.793 202.197C112.892 202.252 112.985 202.316 113.072 202.39Z" fill="#263238"/>
<path d="M108.636 204.775C108.596 204.832 106.182 203.264 103.234 201.282C100.286 199.3 97.9346 197.641 97.9744 197.584C98.0141 197.528 100.428 199.095 103.376 201.078C106.324 203.06 108.67 204.719 108.636 204.775Z" fill="#263238"/>
<path d="M106.057 197.46C105.489 197.651 104.895 197.758 104.296 197.778C103.7 197.86 103.095 197.85 102.501 197.749C103.087 197.646 103.679 197.588 104.274 197.573C104.864 197.491 105.461 197.453 106.057 197.46Z" fill="#263238"/>
<path d="M95.4752 196.079C95.2772 196.531 95.0088 196.949 94.68 197.318C94.4033 197.742 94.0666 198.125 93.6803 198.454C93.8746 198.001 94.1413 197.582 94.4698 197.215C94.7494 196.791 95.0879 196.408 95.4752 196.079Z" fill="#263238"/>
<path d="M97.6392 206.184C97.2295 206.016 96.8391 205.805 96.4748 205.554C95.7819 205.133 94.8333 204.508 93.8279 203.781C92.8226 203.054 91.9308 202.356 91.289 201.85C90.9294 201.594 90.5947 201.305 90.2893 200.987C90.6804 201.192 91.0513 201.433 91.3969 201.708L93.9699 203.583C94.9753 204.31 95.9011 204.951 96.5714 205.412C96.9478 205.64 97.3049 205.898 97.6392 206.184Z" fill="#263238"/>
<path d="M89.034 216.942C87.2675 216.476 85.1659 218.186 84.8024 219.975C84.4389 221.764 85.1091 223.588 85.8929 225.235C87.5735 228.923 90.0668 232.183 93.1861 234.771C96.3312 237.358 100.259 238.805 104.33 238.878C103.586 235.413 104.529 231.801 104.114 228.285C103.748 225.186 102.341 222.303 100.124 220.108C97.9068 217.912 95.0103 216.534 91.9081 216.198C90.7721 216.079 89.4827 215.902 89.034 216.942Z" fill="#455A64"/>
<path d="M104.33 238.878C104.243 238.848 104.159 238.808 104.08 238.759C103.847 238.632 103.627 238.484 103.422 238.316C102.68 237.673 102.086 236.879 101.678 235.987C101.399 235.419 101.11 234.851 100.78 234.192C100.451 233.533 100.161 232.835 99.8317 232.096C99.4866 231.328 99.0959 230.58 98.6617 229.858C98.1846 229.091 97.6491 228.362 97.0599 227.677C95.8557 226.257 94.5607 225.03 93.4361 223.86C92.4183 222.839 91.4944 221.729 90.6756 220.543C90.1223 219.741 89.6684 218.875 89.3237 217.964C89.2316 217.717 89.152 217.465 89.0852 217.209C89.0533 217.123 89.036 217.033 89.0341 216.942C89.0341 216.942 89.1533 217.3 89.4089 217.93C89.7864 218.817 90.2587 219.661 90.8176 220.446C91.6532 221.607 92.5841 222.696 93.6008 223.701C94.7368 224.837 96.0261 226.087 97.2473 227.518C97.8451 228.214 98.3882 228.954 98.8718 229.733C99.3056 230.466 99.6945 231.225 100.036 232.005L100.962 234.107C101.257 234.76 101.564 235.362 101.837 235.907C102.219 236.791 102.78 237.586 103.484 238.242C103.995 238.685 104.347 238.85 104.33 238.878Z" fill="#263238"/>
<path d="M95.2139 235.998C95.2248 235.598 95.28 235.2 95.3786 234.811C95.5149 234.084 95.7421 233.107 96.0488 232.005C96.3555 230.903 96.6793 229.949 96.9406 229.262C97.0598 228.879 97.2218 228.512 97.4234 228.166C97.3518 228.553 97.2454 228.933 97.1053 229.302C96.8895 230.006 96.5884 230.977 96.2817 232.062C95.975 233.147 95.7137 234.124 95.549 234.84C95.4749 235.236 95.3627 235.624 95.2139 235.998Z" fill="#263238"/>
<path d="M103.995 227.501C103.575 227.444 103.16 227.349 102.757 227.217C101.996 227.018 100.945 226.746 99.7806 226.484C98.6162 226.223 97.5484 226.019 96.7759 225.871C96.3544 225.815 95.9383 225.723 95.532 225.598C95.9586 225.586 96.3852 225.62 96.8043 225.7C97.5881 225.803 98.6617 225.979 99.8317 226.268C101.002 226.558 102.053 226.836 102.802 227.075C103.214 227.174 103.614 227.317 103.995 227.501Z" fill="#263238"/>
<path d="M88.6761 229.972C88.6926 229.509 88.7554 229.048 88.8636 228.597C89.0169 227.757 89.2669 226.598 89.5963 225.337C89.9258 224.076 90.2779 222.94 90.5505 222.133C90.6806 221.688 90.8497 221.254 91.0561 220.838C90.9833 221.296 90.8711 221.746 90.721 222.185C90.4824 223.002 90.153 224.138 89.8349 225.399C89.5168 226.66 89.2328 227.802 89.034 228.637C88.9499 229.091 88.8302 229.537 88.6761 229.972Z" fill="#263238"/>
<path d="M99.968 220.1C99.968 220.168 97.7642 219.986 95.0548 219.702C92.3454 219.418 90.1586 219.134 90.1643 219.061C91.8096 219.109 93.4514 219.242 95.0832 219.458C96.7214 219.588 98.3518 219.803 99.968 220.1Z" fill="#263238"/>
<path d="M98.3378 246.785C98.3378 246.853 90.6073 246.91 81.0649 246.91C71.5225 246.91 63.7864 246.853 63.7864 246.785C63.7864 246.716 71.5225 246.665 81.0649 246.665C90.6073 246.665 98.3378 246.716 98.3378 246.785Z" fill="#455A64"/>
<path d="M92.959 256.736C92.959 256.804 87.7447 256.855 81.3206 256.855C74.8966 256.855 69.6766 256.804 69.6766 256.736C69.6766 256.668 74.8909 256.611 81.3206 256.611C87.7504 256.611 92.959 256.674 92.959 256.736Z" fill="#455A64"/>
<path d="M92.7545 258.162C92.7545 258.23 87.6425 258.287 81.3206 258.287C74.9988 258.287 69.8811 258.23 69.8811 258.162C69.8811 258.094 74.9931 258.042 81.3206 258.042C87.6481 258.042 92.7545 258.094 92.7545 258.162Z" fill="#455A64"/>
<path d="M93.1521 255.566C93.1521 255.634 87.7617 255.691 81.1105 255.691C74.4592 255.691 69.0688 255.634 69.0688 255.566C69.0688 255.498 74.4592 255.447 81.1105 255.447C87.7617 255.447 93.1521 255.498 93.1521 255.566Z" fill="#455A64"/>
<path d="M179.675 60.7078L183.964 53.1534C181.314 48.8505 180.369 43.7119 181.315 38.7476C182.261 33.7834 185.029 29.3524 189.076 26.3258C193.123 23.2991 198.156 21.8956 203.185 22.3911C208.214 22.8867 212.876 25.2454 216.255 29.0037C219.633 32.7619 221.484 37.648 221.443 42.7014C221.402 47.7549 219.472 52.6103 216.033 56.3132C212.594 60.0161 207.894 62.2988 202.858 62.7126C197.821 63.1264 192.812 61.6414 188.815 58.5494L179.675 60.7078Z" fill="white"/>
<path d="M179.675 60.7078L188.803 58.504L188.769 58.6062C188.763 58.5999 188.758 58.5924 188.754 58.5841C188.751 58.5758 188.749 58.5669 188.749 58.558C188.749 58.549 188.751 58.5401 188.754 58.5318C188.758 58.5235 188.763 58.516 188.769 58.5097C188.781 58.5014 188.795 58.4969 188.809 58.4969C188.823 58.4969 188.837 58.5014 188.849 58.5097C190.129 59.4908 191.518 60.3199 192.989 60.9805C194.745 61.7507 196.599 62.2707 198.499 62.5254C199.549 62.667 200.61 62.7164 201.668 62.6731C202.236 62.639 202.77 62.6277 203.327 62.5766L205.031 62.3153C210.068 61.3194 214.537 58.4412 217.527 54.2667C219.188 51.9615 220.336 49.3276 220.895 46.5419C221.469 43.6008 221.386 40.5692 220.651 37.6641C219.898 34.6253 218.432 31.8098 216.374 29.4508L215.556 28.5534C215.289 28.2523 214.988 27.9854 214.676 27.7298C214.389 27.4501 214.088 27.1865 213.772 26.9402L212.818 26.2246C212.496 25.978 212.156 25.7559 211.802 25.56L210.79 24.9466L209.728 24.424C209.382 24.244 209.025 24.0847 208.66 23.9469C205.817 22.8234 202.758 22.3518 199.709 22.5666C196.822 22.7602 194.014 23.5884 191.484 24.992C186.936 27.5185 183.53 31.6916 181.964 36.653C181.34 38.7672 181.039 40.9638 181.073 43.168C181.171 46.687 182.191 50.1186 184.032 53.1194C184.037 53.1299 184.04 53.1416 184.04 53.1534C184.04 53.1653 184.037 53.177 184.032 53.1875C181.266 57.9814 179.914 60.3159 179.687 60.7078L183.918 53.1194V53.1875C182.043 50.1733 180.998 46.7164 180.891 43.168C180.844 40.9403 181.137 38.7185 181.76 36.5792C183.326 31.5558 186.763 27.3262 191.359 24.7648C193.92 23.3434 196.763 22.5037 199.686 22.3054C202.782 22.0757 205.889 22.5516 208.774 23.697C209.146 23.8332 209.509 23.9945 209.859 24.1798L210.932 24.7023L211.961 25.3214C212.308 25.5237 212.644 25.7456 212.966 25.986L213.92 26.696C214.238 26.9475 214.543 27.2148 214.835 27.4969C215.13 27.7752 215.454 28.0308 215.726 28.3318L216.55 29.2463C218.637 31.6329 220.123 34.4841 220.884 37.5618C221.63 40.5117 221.712 43.5907 221.122 46.576C220.556 49.3941 219.394 52.0587 217.714 54.3917C214.677 58.6085 210.148 61.5107 205.048 62.5084L203.344 62.764C202.776 62.8094 202.208 62.8265 201.668 62.8549C200.598 62.8973 199.526 62.8441 198.465 62.6958C196.551 62.4321 194.685 61.8985 192.921 61.1111C191.443 60.4378 190.048 59.5953 188.763 58.6006L188.854 58.5097C188.861 58.516 188.866 58.5235 188.869 58.5318C188.873 58.5401 188.874 58.549 188.874 58.558C188.874 58.5669 188.873 58.5758 188.869 58.5841C188.866 58.5924 188.861 58.5999 188.854 58.6062L179.675 60.7078Z" fill="#263238"/>
<path d="M197.721 40.1065H199.039L201.913 36.1305V33.4779C201.913 33.4779 203.946 33.3473 203.707 36.7894C203.469 40.2314 203.707 39.351 203.707 39.351C203.707 39.351 208.024 39.351 208.382 39.743C208.643 40.0156 208.763 44.287 208.808 46.6328C208.836 47.1942 208.676 47.749 208.353 48.209C208.03 48.669 207.562 49.0079 207.025 49.1718C206.873 49.212 206.716 49.233 206.559 49.2342C205.48 49.2342 199.976 48.3595 199.976 48.3595H197.704L197.721 40.1065Z" fill="#0C9B18"/>
<path d="M193.955 39.3851L194.767 48.3822H197.016V39.5669L193.955 39.3851Z" fill="#0C9B18"/>
<path d="M131.145 58.7085C127.978 60.728 124.291 61.7801 120.535 61.7359C119.348 61.663 118.157 61.6498 116.968 61.6962C115.771 61.7455 114.624 62.1911 113.708 62.9628C113.258 63.3561 112.937 63.876 112.787 64.4546C112.637 65.0332 112.665 65.6437 112.867 66.2061C113.537 67.7397 115.707 68.3474 116.037 69.989C116.275 71.1704 115.395 72.295 114.401 72.9823C113.407 73.6696 112.248 74.1183 111.413 74.993C110.909 75.5166 110.553 76.1646 110.382 76.8707C110.21 77.5769 110.229 78.3159 110.436 79.0124C110.643 79.709 111.032 80.338 111.562 80.8353C112.092 81.3326 112.744 81.6804 113.452 81.8431C114.299 82.0419 115.338 82.0476 115.798 82.786C116.042 83.3468 116.086 83.9744 115.923 84.5638C115.7 85.8298 115.868 87.1336 116.406 88.3013C116.683 88.8795 117.114 89.3697 117.653 89.7176C118.191 90.0655 118.815 90.2574 119.456 90.2722C119.956 90.2722 120.444 90.1018 120.944 90.1132C121.194 90.0978 121.442 90.1586 121.656 90.2874C121.87 90.4162 122.04 90.607 122.143 90.8346C122.196 91.175 122.18 91.5226 122.097 91.857C121.915 93.5326 123.585 94.8446 125.204 95.3218C128.436 96.2874 132.02 95.3558 134.769 93.3678C137.518 91.3798 139.399 88.4376 140.677 85.3136C141.955 82.1896 142.642 78.8725 143.323 75.5667" fill="#263238"/>
<path d="M167.248 142.256C166.885 141.361 166.342 140.55 165.652 139.876C161.375 135.332 154.894 133.145 148.663 133.503C142.432 133.861 136.462 136.57 131.623 140.495C129.038 142.591 125.551 146.629 124.642 149.833C128.436 150.747 134.105 149.475 137.706 147.913C141.307 146.351 144.829 144.465 148.708 144.068C153.207 143.607 157.626 145.204 162.056 146.107C162.942 146.323 163.857 146.395 164.765 146.322C165.22 146.282 165.66 146.145 166.057 145.922C166.455 145.699 166.801 145.394 167.072 145.027C167.31 144.609 167.45 144.142 167.48 143.662C167.511 143.182 167.431 142.701 167.248 142.256Z" fill="#0C9B18"/>
<g opacity="0.3">
<path d="M167.248 142.256C166.885 141.361 166.342 140.55 165.652 139.876C161.375 135.332 154.894 133.145 148.663 133.503C142.432 133.861 136.462 136.57 131.623 140.495C129.038 142.591 125.551 146.629 124.642 149.833C128.436 150.747 134.105 149.475 137.706 147.913C141.307 146.351 144.829 144.465 148.708 144.068C153.207 143.607 157.626 145.204 162.056 146.107C162.942 146.323 163.857 146.395 164.765 146.322C165.22 146.282 165.66 146.145 166.057 145.922C166.455 145.699 166.801 145.394 167.072 145.027C167.31 144.609 167.45 144.142 167.48 143.662C167.511 143.182 167.431 142.701 167.248 142.256Z" fill="black"/>
</g>
<path d="M164.152 196.443L174.984 189.428C174.984 189.428 185.776 198.079 187.883 196.977L175.024 175.512L157.694 185.736L164.152 196.443Z" fill="#0C9B18"/>
<path d="M170.071 183.339C170.009 183.094 170.039 182.836 170.157 182.612C170.274 182.389 170.47 182.217 170.707 182.129C170.949 182.059 171.21 182.084 171.434 182.2C171.658 182.317 171.829 182.515 171.911 182.754C171.974 183.013 171.94 183.286 171.814 183.521C171.688 183.756 171.48 183.936 171.229 184.026C170.969 184.074 170.701 184.019 170.481 183.872C170.26 183.726 170.105 183.501 170.048 183.242" fill="#E0E0E0"/>
<g opacity="0.6">
<path d="M175.024 175.512L173.32 176.614L186.304 196.778C186.304 196.778 187.292 197.488 187.9 196.977L175.024 175.512Z" fill="white"/>
</g>
<path d="M175.075 189.837C175.177 189.774 174.91 189.218 174.938 188.502C174.967 187.786 175.245 187.247 175.148 187.173C175.052 187.099 174.535 187.622 174.518 188.491C174.501 189.36 174.995 189.922 175.075 189.837Z" fill="#263238"/>
<path d="M177.358 191.535C177.472 191.501 177.358 190.967 177.608 190.314C177.858 189.661 178.25 189.309 178.176 189.206C178.102 189.104 177.477 189.394 177.205 190.172C176.932 190.95 177.256 191.592 177.358 191.535Z" fill="#263238"/>
<path d="M180.823 191.2C180.783 191.092 180.175 191.263 179.761 191.876C179.346 192.49 179.414 193.114 179.528 193.109C179.641 193.103 179.766 192.614 180.096 192.115C180.425 191.615 180.874 191.314 180.823 191.2Z" fill="#263238"/>
<path d="M172.428 191.166C172.502 191.064 172.064 190.666 171.752 190.03C171.439 189.394 171.349 188.837 171.224 188.837C171.099 188.837 170.996 189.502 171.377 190.229C171.758 190.956 172.377 191.268 172.428 191.166Z" fill="#263238"/>
<path opacity="0.3" d="M165.862 180.902L170.786 192.137L169.133 193.307L163.453 182.351L165.862 180.902Z" fill="black"/>
<path d="M159.409 136.82C158.966 136.82 144.397 136.496 136.53 141.693L130.282 145.204L130.447 151.508C130.447 151.508 129.112 153.735 129.407 155.07C129.703 156.405 129.368 162.045 129.368 162.045C129.368 162.045 127.033 162.192 126.738 166.202C126.738 166.202 123.5 167.537 122.08 169.912C120.66 172.286 106.108 198.999 105.222 203.304C104.336 207.61 103.734 215.175 107 217.697C110.266 220.219 117.576 219.328 117.576 219.328C117.576 219.328 118.615 222.446 125 222.594C131.384 222.741 141.171 215.323 141.171 215.323L170.559 195.29L163.584 180.402L153.32 186.679L164.3 173.916C164.3 173.916 169.349 165.311 167.861 156.257C166.765 149.537 159.409 136.82 159.409 136.82Z" fill="#263238"/>
<path d="M161.925 141.432H161.579H160.591C159.727 141.432 158.489 141.432 156.955 141.432C155.422 141.432 153.593 141.506 151.582 141.722C149.4 141.93 147.247 142.38 145.164 143.062C140.728 144.562 137.161 146.942 134.622 148.64L131.634 150.707L130.822 151.275C130.732 151.347 130.632 151.407 130.526 151.452C130.526 151.452 130.606 151.366 130.782 151.224L131.566 150.622C132.253 150.1 133.27 149.356 134.502 148.47C137.019 146.726 140.586 144.3 145.067 142.79C147.172 142.099 149.348 141.652 151.554 141.455C153.349 141.288 155.152 141.214 156.955 141.233C158.489 141.233 159.733 141.29 160.591 141.335L161.579 141.392C161.696 141.39 161.812 141.403 161.925 141.432Z" fill="#455A64"/>
<path d="M131.941 146.067C131.708 146.3 131.548 146.596 131.481 146.919C131.452 147.085 131.464 147.255 131.518 147.415C131.571 147.575 131.664 147.719 131.787 147.833C131.938 147.972 132.123 148.067 132.323 148.109C132.523 148.151 132.73 148.138 132.923 148.072C133.109 147.987 133.268 147.853 133.384 147.685C133.5 147.517 133.568 147.321 133.582 147.118C133.594 146.949 133.563 146.78 133.492 146.626C133.422 146.473 133.314 146.339 133.179 146.237C132.907 146.048 132.584 145.945 132.253 145.942C132.253 145.942 132.338 145.868 132.531 145.857C132.804 145.841 133.074 145.917 133.298 146.073C133.477 146.184 133.624 146.34 133.723 146.525C133.823 146.71 133.872 146.919 133.866 147.129C133.871 147.395 133.795 147.655 133.648 147.876C133.5 148.097 133.289 148.268 133.043 148.366C132.796 148.465 132.525 148.485 132.266 148.425C132.008 148.366 131.773 148.228 131.594 148.032C131.448 147.886 131.342 147.705 131.284 147.506C131.227 147.308 131.22 147.098 131.265 146.896C131.324 146.629 131.468 146.389 131.674 146.209C131.833 146.073 131.935 146.05 131.941 146.067Z" fill="#455A64"/>
<path d="M137.172 146.834C137.144 146.862 136.939 146.709 136.649 146.413C136.227 146.044 135.931 145.552 135.803 145.006C135.676 144.459 135.724 143.887 135.939 143.369C136.07 142.971 136.189 142.744 136.223 142.755C136.257 142.767 136.223 143.022 136.144 143.42C136.024 143.917 136.007 144.433 136.093 144.937C136.24 145.426 136.483 145.882 136.808 146.277C137.047 146.601 137.2 146.805 137.172 146.834Z" fill="#455A64"/>
<path d="M138.405 146.078C138.405 146.107 138.177 145.982 137.91 145.703C137.567 145.327 137.313 144.879 137.166 144.391C136.938 143.715 136.928 142.984 137.138 142.301C137.24 142.301 137.138 143.244 137.45 144.306C137.696 144.933 138.016 145.528 138.405 146.078Z" fill="#455A64"/>
<path d="M154.132 141.432C154.087 141.432 154.07 141.165 154.03 140.745C153.987 140.21 153.866 139.683 153.672 139.183C153.46 138.692 153.159 138.243 152.786 137.859C152.502 137.553 152.321 137.359 152.349 137.325C152.377 137.291 152.605 137.428 152.917 137.706C153.357 138.074 153.703 138.541 153.928 139.069C154.139 139.6 154.24 140.168 154.223 140.739C154.248 140.974 154.217 141.211 154.132 141.432Z" fill="#455A64"/>
<path d="M156.041 141.432C155.995 141.432 155.99 141.165 155.995 140.75C156.028 140.224 155.984 139.696 155.865 139.183C155.674 138.69 155.427 138.221 155.126 137.785C154.905 137.433 154.786 137.217 154.82 137.178C154.854 137.138 155.036 137.342 155.297 137.666C155.662 138.09 155.951 138.574 156.149 139.098C156.286 139.644 156.303 140.214 156.2 140.767C156.143 141.154 156.081 141.432 156.041 141.432Z" fill="#455A64"/>
<path d="M130.918 205.945C130.979 205.714 131.069 205.49 131.185 205.281C131.384 204.855 131.691 204.236 132.094 203.446C132.901 201.862 134.088 199.584 135.576 196.778C138.552 191.166 142.71 183.436 147.339 174.921L150.747 168.702C151.783 166.776 152.586 164.734 153.138 162.618C154.077 159.022 154.27 155.273 153.706 151.599C153.335 149.124 152.63 146.711 151.611 144.425C151.253 143.613 150.94 143 150.724 142.585L150.475 142.114C150.445 142.061 150.421 142.006 150.401 141.949C150.44 141.997 150.474 142.048 150.503 142.102L150.776 142.557C151.008 142.96 151.344 143.568 151.718 144.374C154.372 150.103 154.952 156.577 153.36 162.687C152.808 164.828 152.001 166.895 150.957 168.844C149.867 170.849 148.736 172.928 147.583 175.058L135.752 196.874L132.185 203.497L131.225 205.304L130.986 205.781C130.969 205.838 130.946 205.893 130.918 205.945Z" fill="#455A64"/>
<path d="M163.698 186.724C163.598 186.808 163.491 186.884 163.38 186.952L162.437 187.52L158.955 189.712C156.018 191.53 151.974 194.057 147.549 196.92C143.125 199.783 139.16 202.412 136.32 204.332L132.912 206.604L131.975 207.206C131.869 207.282 131.757 207.349 131.64 207.405C131.73 207.313 131.831 207.231 131.941 207.161L132.844 206.508L136.195 204.162C139.035 202.202 143.011 199.521 147.413 196.653C151.815 193.785 155.905 191.285 158.87 189.519C160.352 188.633 161.562 187.928 162.397 187.451L163.368 186.883C163.473 186.821 163.584 186.768 163.698 186.724Z" fill="#455A64"/>
<path d="M168.293 196.812C168.183 196.632 168.091 196.442 168.02 196.244L167.31 194.631C166.697 193.273 165.822 191.41 164.839 189.36C163.857 187.309 163.005 185.509 162.334 184.1L161.59 182.498C161.488 182.307 161.408 182.105 161.352 181.896C161.49 182.07 161.604 182.261 161.693 182.464C161.897 182.834 162.181 183.362 162.522 184.026C163.203 185.35 164.129 187.196 165.106 189.252C166.083 191.308 166.935 193.182 167.503 194.568C167.787 195.256 167.997 195.824 168.128 196.221C168.203 196.412 168.259 196.61 168.293 196.812Z" fill="#455A64"/>
<path d="M130.918 205.945C130.867 205.883 135.888 201.441 142.142 196.022C148.396 190.604 153.502 186.264 153.559 186.327C153.616 186.389 148.589 190.848 142.335 196.244C136.081 201.64 130.975 206.008 130.918 205.945Z" fill="#455A64"/>
<path d="M124.693 216.357C125.152 215.962 125.559 215.509 125.903 215.011C126.511 214.068 127.255 212.682 128.095 211.177C128.936 209.672 129.646 208.269 130.169 207.263C130.422 206.706 130.719 206.168 131.055 205.656C130.873 206.243 130.639 206.814 130.356 207.36C129.879 208.394 129.186 209.802 128.357 211.336C127.527 212.869 126.743 214.21 126.085 215.147C125.82 215.519 125.503 215.85 125.142 216.13C125.009 216.235 124.856 216.312 124.693 216.357Z" fill="#455A64"/>
<path d="M130.015 217.964C129.97 217.964 130.293 217.322 130.651 216.26C131.098 214.866 131.406 213.432 131.571 211.978C131.774 210.531 131.774 209.062 131.571 207.615C131.504 207.183 131.376 206.762 131.191 206.366C131.094 206.236 131.011 206.097 130.941 205.951C130.941 205.951 131.089 206.048 131.287 206.309C131.524 206.699 131.689 207.128 131.776 207.576C132.051 209.039 132.089 210.536 131.89 212.012C131.726 213.489 131.382 214.94 130.867 216.334C130.708 216.755 130.518 217.163 130.299 217.555C130.129 217.828 130.032 217.976 130.015 217.964Z" fill="#455A64"/>
<path d="M123.864 209.336C124.227 209.171 124.608 209.049 125 208.973C125.895 208.73 126.771 208.419 127.618 208.041C129.589 207.121 130.879 205.855 130.947 205.945C130.7 206.259 130.404 206.531 130.072 206.752C129.353 207.37 128.552 207.886 127.692 208.286C126.83 208.675 125.927 208.966 125 209.155C124.631 209.266 124.249 209.328 123.864 209.336Z" fill="#455A64"/>
<path d="M131.378 168.066C131.357 168.108 131.33 168.149 131.299 168.185L131.049 168.52C130.827 168.815 130.509 169.253 130.129 169.832C129.059 171.483 128.157 173.238 127.437 175.069C126.394 177.794 125.527 180.583 124.841 183.419C123.994 186.605 123.137 190.155 121.711 193.699C120.285 197.244 118.434 200.39 117.264 203.469C116.164 206.169 115.565 209.046 115.497 211.961C115.497 213.075 115.623 214.186 115.872 215.272C116.072 216.091 116.344 216.892 116.684 217.663C116.901 218.152 117.146 218.628 117.417 219.089C117.497 219.237 117.565 219.356 117.621 219.452C117.646 219.494 117.667 219.538 117.684 219.583C117.649 219.549 117.618 219.511 117.593 219.47L117.366 219.123C117.073 218.671 116.81 218.2 116.576 217.714C116.215 216.942 115.926 216.138 115.713 215.312C115.444 214.213 115.301 213.086 115.287 211.955C115.317 209.011 115.895 206.099 116.991 203.367C118.155 200.26 119.956 197.085 121.416 193.58C122.875 190.076 123.688 186.526 124.551 183.356C125.255 180.513 126.147 177.72 127.221 174.995C127.96 173.16 128.895 171.41 130.01 169.775C130.407 169.207 130.742 168.77 130.981 168.492L131.253 168.173C131.339 168.128 131.373 168.06 131.378 168.066Z" fill="#455A64"/>
<path d="M132.344 150.139C132.261 150.377 132.163 150.608 132.049 150.832C131.777 151.457 131.586 152.114 131.481 152.786C131.354 153.785 131.388 154.798 131.583 155.785C131.759 156.921 132.23 158.057 132.548 159.386C132.709 160.028 132.765 160.692 132.713 161.352C132.664 161.959 132.567 162.561 132.424 163.152C132.183 164.146 131.889 165.127 131.543 166.089C131.253 166.912 130.975 167.566 130.816 168.02C130.738 168.26 130.633 168.491 130.504 168.707C130.55 168.459 130.618 168.216 130.708 167.98C130.879 167.463 131.089 166.805 131.344 166.021C131.6 165.237 131.912 164.209 132.157 163.09C132.482 161.904 132.517 160.657 132.259 159.455C131.952 158.188 131.475 156.99 131.316 155.831C131.126 154.815 131.11 153.774 131.27 152.752C131.392 152.067 131.616 151.405 131.935 150.787C132.017 150.618 132.11 150.455 132.213 150.298C132.282 150.191 132.344 150.134 132.344 150.139Z" fill="#455A64"/>
<path d="M133.026 167.231C133.657 166.526 134.144 165.704 134.457 164.811C134.773 163.839 134.923 162.822 134.9 161.8C134.855 160.543 134.7 159.293 134.434 158.063C134.158 156.823 133.948 155.57 133.804 154.309C133.713 153.268 133.734 152.221 133.866 151.185C133.948 150.485 134.116 149.798 134.366 149.14C134.433 148.962 134.513 148.789 134.605 148.623C134.673 148.509 134.707 148.452 134.718 148.452C134.73 148.452 134.622 148.714 134.474 149.18C134.27 149.842 134.134 150.523 134.071 151.213C133.974 152.233 133.974 153.26 134.071 154.28C134.179 155.416 134.463 156.683 134.718 158.006C134.989 159.254 135.139 160.524 135.167 161.8C135.178 162.85 135.001 163.892 134.644 164.879C134.406 165.548 134.048 166.167 133.588 166.708C133.461 166.851 133.324 166.986 133.179 167.111C133.088 167.196 133.031 167.236 133.026 167.231Z" fill="#455A64"/>
<path d="M147.43 162.755C147.206 162.818 146.975 162.86 146.743 162.88C146.3 162.936 145.658 163.039 144.874 163.175C142.826 163.53 140.809 164.047 138.842 164.72C136.877 165.402 134.969 166.235 133.134 167.214C132.429 167.594 131.867 167.906 131.481 168.134C131.288 168.266 131.08 168.374 130.862 168.457C131.035 168.297 131.225 168.156 131.43 168.037C131.799 167.782 132.35 167.435 133.043 167.032C136.684 164.945 140.686 163.565 144.84 162.965C145.635 162.857 146.283 162.789 146.731 162.766C146.963 162.734 147.198 162.73 147.43 162.755Z" fill="#455A64"/>
<path d="M148.356 156.558C148.356 156.615 147.515 156.603 146.192 156.808C145.423 156.931 144.663 157.109 143.92 157.342C142.086 157.918 140.37 158.818 138.853 160C138.234 160.483 137.651 161.011 137.109 161.579C136.189 162.55 135.724 163.249 135.678 163.215C135.752 163.031 135.851 162.859 135.973 162.704C136.269 162.257 136.597 161.834 136.956 161.437C137.476 160.839 138.046 160.286 138.66 159.784C139.425 159.179 140.243 158.643 141.103 158.182C141.974 157.736 142.882 157.368 143.818 157.08C144.581 156.855 145.362 156.696 146.152 156.603C146.685 156.532 147.222 156.502 147.759 156.512C147.959 156.504 148.16 156.52 148.356 156.558Z" fill="#455A64"/>
<path d="M149.623 169.554C149.42 169.659 149.207 169.741 148.986 169.798C148.566 169.934 147.97 170.139 147.226 170.4C145.303 171.087 143.42 171.882 141.585 172.78C139.757 173.684 137.982 174.693 136.269 175.802C135.61 176.228 135.082 176.58 134.718 176.83C134.542 176.969 134.352 177.089 134.15 177.188C134.304 177.018 134.478 176.868 134.667 176.739C135.008 176.461 135.519 176.08 136.167 175.603C137.855 174.433 139.628 173.39 141.472 172.485C143.307 171.578 145.205 170.806 147.152 170.173C147.902 169.94 148.515 169.764 148.941 169.662C149.163 169.597 149.392 169.561 149.623 169.554Z" fill="#455A64"/>
<path d="M167.56 154.689C167.364 154.649 167.173 154.586 166.992 154.502C166.64 154.365 166.123 154.172 165.453 153.934C163.606 153.329 161.703 152.912 159.773 152.69L159.915 152.559C159.983 155.007 159.966 157.91 159.75 161.005C159.546 164.022 159.146 167.021 158.551 169.985V169.923C159.077 171.642 159.708 173.326 160.443 174.967C160.71 175.535 160.954 176 161.119 176.307C161.217 176.455 161.306 176.609 161.386 176.767C161.262 176.637 161.151 176.494 161.056 176.341C160.783 175.919 160.535 175.481 160.312 175.029C159.529 173.401 158.863 171.719 158.319 169.997V169.968V169.934C158.873 166.975 159.253 163.986 159.455 160.983C159.67 157.898 159.699 155.007 159.665 152.565V152.417H159.812C161.75 152.658 163.654 153.112 165.492 153.769C166.157 154.013 166.663 154.235 167.009 154.388C167.201 154.472 167.386 154.572 167.56 154.689Z" fill="#455A64"/>
<path d="M167.992 157.154C167.585 157.079 167.186 156.969 166.799 156.825C166.072 156.609 165.055 156.325 163.925 156.064C161.653 155.53 159.801 155.189 159.812 155.104C160.228 155.088 160.644 155.124 161.051 155.212C161.812 155.32 162.851 155.501 163.993 155.78C166.282 156.291 168.031 157.075 167.992 157.154Z" fill="#455A64"/>
<path d="M165.288 148.413C165.288 148.452 164.595 148.254 163.487 147.992C162.044 147.655 160.579 147.422 159.103 147.294C157.625 147.178 156.141 147.159 154.661 147.237C154.045 147.294 153.427 147.317 152.809 147.305C152.965 147.243 153.13 147.205 153.298 147.192C153.616 147.14 154.076 147.078 154.644 147.027C156.134 146.889 157.633 146.88 159.125 146.998C160.618 147.124 162.095 147.388 163.539 147.788C164.107 147.947 164.533 148.089 164.828 148.208C164.991 148.252 165.147 148.321 165.288 148.413Z" fill="#455A64"/>
<path d="M153.707 150.974C153.463 151.076 153.21 151.154 152.951 151.207C152.463 151.338 151.747 151.497 150.849 151.656C148.516 152.064 146.141 152.182 143.778 152.008C142.409 151.872 141.04 151.724 139.972 151.054C139.469 150.74 139.059 150.296 138.785 149.77C138.559 149.297 138.491 148.763 138.592 148.248C138.707 147.535 138.919 146.841 139.223 146.186C139.318 145.938 139.455 145.708 139.626 145.505C139.626 145.505 139.512 145.76 139.33 146.226C139.074 146.887 138.895 147.575 138.797 148.276C138.724 148.744 138.8 149.223 139.012 149.645C139.281 150.12 139.674 150.513 140.148 150.781C141.142 151.395 142.477 151.542 143.835 151.673C146.178 151.843 148.532 151.754 150.855 151.406C151.747 151.281 152.468 151.15 152.962 151.054C153.208 151.005 153.457 150.979 153.707 150.974Z" fill="#455A64"/>
<path d="M152.258 49.1661C149.543 43.2816 142.824 44.4403 139.609 46.0023C136.378 47.5277 133.84 50.215 132.503 53.5283C131.56 55.8003 130.799 58.3904 128.902 59.7763C128.03 60.2943 127.129 60.7627 126.204 61.1793C125.729 61.4097 125.312 61.7444 124.985 62.1585C124.657 62.5725 124.427 63.0552 124.312 63.5706C124.028 65.5302 126.016 66.8877 127.652 67.6772C126.67 68.3474 126.414 69.864 126.761 71.0852C127.18 72.2522 127.842 73.3169 128.703 74.2092C131.601 77.4084 134.915 80.2034 138.558 82.519C141.659 84.4502 143.67 84.6774 146.998 83.2915C148.35 82.7235 149.611 81.8034 151.054 81.6386C152.73 81.4512 154.331 82.3089 155.99 82.6554C157.648 83.0018 159.739 82.5247 160.278 80.781C160.412 80.086 160.488 79.3812 160.505 78.6737C160.591 77.975 160.937 77.2139 161.568 77.0549C162.079 76.9242 162.59 77.2366 163.09 77.4014C164.288 77.799 166.095 86.6938 167.242 86.1542C167.242 86.1542 168.912 71.0795 165.697 62.2585C164.669 59.4185 162.476 53.4431 160.727 51.1086C158.319 47.9051 152.548 48.6151 152.258 49.1831" fill="#263238"/>
<path d="M148.816 50.143C144.539 48.6492 138.768 51.9322 137.456 56.2661C135.996 61.077 134.412 67.0126 134.133 70.7955C133.565 78.401 138.978 80.656 138.978 80.656L136.78 92.5442L155.314 86.5518L161.783 58.5381L162.386 56.1866L148.816 50.143Z" fill="#FFBE9D"/>
<path d="M137.456 62.1278C137.519 62.2926 138.399 62.054 139.365 62.4346C140.33 62.8151 140.853 63.5706 141 63.5024C141.148 63.4342 141.046 63.2184 140.824 62.8719C140.52 62.4163 140.081 62.0669 139.569 61.8722C139.068 61.6684 138.514 61.6326 137.99 61.77C137.609 61.912 137.456 62.054 137.456 62.1278Z" fill="#263238"/>
<path d="M147.05 64.6554C147.163 64.7861 147.93 64.2976 148.964 64.3714C149.997 64.4453 150.724 65.0133 150.849 64.894C150.974 64.7747 150.804 64.6043 150.486 64.326C150.058 63.9879 149.536 63.7896 148.992 63.758C148.452 63.7193 147.913 63.8525 147.453 64.1386C147.112 64.3714 146.998 64.593 147.05 64.6554Z" fill="#263238"/>
<path d="M142.744 68.9098C142.251 68.6165 141.722 68.3874 141.171 68.2282C140.921 68.1373 140.688 68.0294 140.688 67.8419C140.727 67.5706 140.85 67.3183 141.04 67.1206L142.261 65.3314C143.965 62.781 145.289 60.6567 145.186 60.5886C145.084 60.5204 143.607 62.5311 141.886 65.0814C141.472 65.7176 141.074 66.314 140.694 66.8934C140.455 67.1654 140.322 67.5141 140.319 67.876C140.336 67.9754 140.375 68.0697 140.433 68.1522C140.491 68.2347 140.566 68.3033 140.654 68.3531C140.79 68.422 140.933 68.4772 141.08 68.5178C141.616 68.7188 142.175 68.8505 142.744 68.9098Z" fill="#263238"/>
<path d="M138.984 80.656C142.503 81.5419 146.197 81.4496 149.668 80.389C149.668 80.389 146.073 84.9671 138.637 82.5134L138.984 80.656Z" fill="#EB996E"/>
<path d="M142.193 72.3064C142.097 72.1814 142.239 72.4598 142.193 72.3064V72.3064Z" fill="#EB996E"/>
<path d="M145.493 71.8122C145.382 71.5783 145.224 71.3698 145.028 71.1998C144.833 71.0297 144.604 70.9018 144.357 70.8239C144.023 70.7041 143.664 70.6709 143.313 70.7275C142.962 70.7841 142.632 70.9287 142.352 71.1477C142.238 71.3109 142.162 71.4982 142.132 71.6952C142.101 71.8921 142.116 72.0935 142.176 72.2837C142.534 72.7438 142.568 73.13 143.068 73.4197C143.428 73.5384 143.809 73.5775 144.186 73.5343C144.562 73.4912 144.925 73.3668 145.249 73.1698C145.424 72.9958 145.541 72.7722 145.585 72.5294C145.628 72.2866 145.596 72.0363 145.493 71.8122Z" fill="#EB996E"/>
<path d="M145.561 70.307C145.397 70.2616 145.135 71.3579 144.016 71.9145C142.897 72.4711 141.744 72.0792 141.705 72.2326C141.705 72.295 141.915 72.5052 142.409 72.6358C143.049 72.7964 143.724 72.726 144.317 72.437C144.889 72.1574 145.329 71.6665 145.544 71.0682C145.698 70.6195 145.635 70.3184 145.561 70.307Z" fill="#263238"/>
<path d="M149.14 59.2992C149.083 59.5889 149.929 59.8672 150.787 60.5147C151.645 61.1622 152.23 61.8268 152.491 61.6507C152.605 61.5712 152.599 61.2702 152.428 60.8669C152.198 60.3659 151.84 59.9348 151.389 59.6173C150.951 59.2933 150.432 59.0967 149.89 59.0493C149.441 59.072 149.168 59.1629 149.14 59.2992Z" fill="#263238"/>
<path d="M138.081 58.237C138.302 58.4529 139.08 58.1291 140.035 58.0269C140.989 57.9247 141.824 58.0269 141.989 57.7542C142.057 57.6236 141.909 57.4021 141.528 57.1862C141.018 56.9572 140.453 56.8764 139.898 56.9534C139.344 57.0114 138.818 57.2262 138.382 57.5725C138.064 57.8792 137.979 58.1291 138.081 58.237Z" fill="#263238"/>
<path d="M163.431 56.1695C163.112 55.6009 162.612 55.1551 162.011 54.9029C158.323 52.8793 154.505 51.1032 150.582 49.5864L148.969 50.5009C148.758 52.0722 149.017 53.6709 149.715 55.0946C150.412 56.5183 151.517 57.7029 152.889 58.4983C153.99 59.1118 155.422 59.6911 155.564 60.9464C155.706 62.2017 154.348 63.1332 153.581 64.1897C153.113 64.8492 152.85 65.633 152.827 66.4419C152.803 67.2507 153.021 68.0483 153.451 68.7337C153.945 69.5005 154.695 70.0798 155.155 70.8694C155.44 71.4052 155.602 71.9979 155.628 72.6043C155.655 73.2106 155.545 73.8153 155.308 74.3739C154.848 75.5099 154.081 77.0038 153.036 77.6342C154.447 77.9514 155.922 77.8203 157.255 77.2592C158.587 76.6982 159.712 75.7352 160.471 74.5046C161.335 73.0391 161.403 71.2613 161.516 69.563C161.777 65.6999 162.391 61.8688 163.351 58.1178C163.593 57.4952 163.621 56.8098 163.431 56.1695Z" fill="#263238"/>
<path d="M150.838 49.7625C149.845 51.0771 148.65 52.2272 147.299 53.1705C145.902 54.0395 144.119 54.4485 142.591 53.835C142.971 53.4147 143.357 52.9944 143.727 52.5684C141.008 54.4303 137.93 55.7033 134.69 56.3058C136.723 53.835 138.819 51.3131 141.597 49.717C144.374 48.121 148.015 47.6325 150.724 49.3308" fill="#263238"/>
<path d="M163.806 64.1272L155.149 70.8523C156.143 71.9372 155.757 74.6977 154.78 75.7939C153.803 76.8902 152.508 77.8274 152.127 79.2474C151.707 80.798 152.531 82.4054 152.553 84.0129C152.588 86.2849 151.06 88.2388 149.878 90.1814C148.697 92.1239 147.845 94.7254 149.163 96.5827C150.645 98.673 154.002 98.3719 156.03 96.8099C158.057 95.2479 159.216 92.8339 160.721 90.7664C162.227 88.6989 164.578 87.1142 167.128 87.3584C167.919 79.4598 166.779 71.4874 163.806 64.1272Z" fill="#263238"/>
<path d="M165.254 82.8769C165.203 82.7803 165.714 82.4111 166.589 81.7068C167.824 80.7534 168.924 79.6376 169.86 78.3897C170.479 77.5392 170.97 76.6037 171.32 75.6122C171.724 74.4999 171.897 73.3174 171.831 72.136C171.741 70.8486 171.333 69.6036 170.644 68.5122C169.875 67.3166 168.9 66.2667 167.764 65.4109C165.436 63.599 162.652 62.5709 160.221 61.486C157.959 60.6119 155.823 59.439 153.871 57.9985C152.539 57.0046 151.437 55.7357 150.639 54.2781C150.111 53.2273 150.026 52.5741 150.105 52.5741C150.185 52.5741 150.486 53.1023 151.128 53.9998C152.056 55.2471 153.193 56.3234 154.49 57.1806C156.452 58.4265 158.55 59.4424 160.744 60.208C161.982 60.7022 163.306 61.2134 164.658 61.8382C166.091 62.4829 167.446 63.289 168.696 64.2408C169.97 65.2083 171.058 66.3997 171.905 67.7567C172.7 69.0598 173.151 70.543 173.217 72.0678C173.255 73.4294 173.007 74.7838 172.49 76.0438C172.054 77.1242 171.452 78.1302 170.707 79.0258C169.646 80.2913 168.369 81.3586 166.935 82.1782C165.907 82.7576 165.288 82.9564 165.254 82.8769Z" fill="#263238"/>
<path d="M165.419 62.48C165.159 62.4262 164.905 62.3443 164.663 62.2358C164.186 62.0597 163.527 61.7927 162.658 61.4406C160.442 60.5621 158.359 59.3767 156.473 57.919C154.577 56.4301 153.152 54.4265 152.366 52.1481C152.137 51.4592 152.002 50.7429 151.963 50.0181C151.953 49.8289 151.953 49.6393 151.963 49.4501C151.954 49.3822 151.954 49.3135 151.963 49.2456C152.05 50.2098 152.241 51.1619 152.531 52.0856C153.367 54.2902 154.784 56.2274 156.632 57.6918C158.503 59.1282 160.546 60.3246 162.715 61.2531L164.68 62.1278C164.937 62.2222 165.184 62.3401 165.419 62.48Z" fill="#455A64"/>
<path d="M165.691 71.0795C165.657 71.0795 165.833 70.7387 165.924 70.1026C166.025 69.1926 165.866 68.2728 165.464 67.45C164.877 66.2253 163.97 65.1815 162.84 64.4282C161.596 63.5251 160.051 62.8094 158.506 61.8836C157.046 61.0154 155.737 59.9141 154.632 58.6233C153.728 57.57 152.964 56.4033 152.36 55.1528C151.958 54.3135 151.641 53.4364 151.412 52.5343C151.321 52.2162 151.287 51.9663 151.253 51.7959C151.226 51.7115 151.215 51.623 151.219 51.5346C151.337 51.8525 151.438 52.1768 151.52 52.5059C151.79 53.3851 152.134 54.2401 152.548 55.0619C153.159 56.2889 153.922 57.434 154.82 58.4699C155.913 59.7312 157.202 60.8089 158.637 61.6621C160.159 62.5709 161.715 63.3036 162.976 64.2351C164.135 65.0242 165.055 66.1167 165.634 67.3932C166.032 68.2534 166.164 69.2123 166.015 70.148C165.971 70.3985 165.897 70.6426 165.794 70.875C165.742 71 165.703 71.0852 165.691 71.0795Z" fill="#455A64"/>
<path d="M117.826 65.32C117.826 65.32 117.826 65.2859 117.877 65.2291C117.934 65.1417 117.996 65.0582 118.064 64.9792C118.325 64.6674 118.656 64.4221 119.03 64.2635C119.633 64.0525 120.266 63.9431 120.904 63.9398C121.637 63.9 122.478 63.8432 123.404 63.8432C124.405 63.861 125.405 63.7677 126.386 63.5649C127.492 63.2804 128.517 62.7417 129.379 61.9915C130.329 61.1487 131.151 60.173 131.821 59.0947C132.534 57.9259 133.185 56.72 133.77 55.4822C134.367 54.2359 135.05 53.0326 135.814 51.8811C136.537 50.799 137.444 49.853 138.495 49.0866C140.307 47.8235 142.451 47.124 144.658 47.0758C146.135 47.0245 147.605 47.2838 148.975 47.837L149.611 48.1153L150.049 48.3652C150.174 48.4291 150.293 48.5032 150.406 48.5867C150.274 48.5431 150.147 48.486 150.026 48.4163L149.571 48.1948L148.935 47.9449C147.57 47.4421 146.117 47.218 144.664 47.286C142.507 47.3643 140.42 48.0667 138.654 49.3081C137.633 50.0607 136.753 50.9874 136.053 52.0458C135.303 53.1814 134.633 54.3675 134.048 55.5958C133.456 56.8436 132.798 58.059 132.077 59.2367C131.389 60.3351 130.543 61.3265 129.566 62.179C128.669 62.9516 127.603 63.5023 126.454 63.7864C125.454 63.9847 124.434 64.0685 123.415 64.0363C122.489 64.0363 121.66 64.0363 120.922 64.0874C120.299 64.0754 119.68 64.1655 119.087 64.3544C118.72 64.4934 118.389 64.7149 118.121 65.0019C118.029 65.1139 117.931 65.2201 117.826 65.32Z" fill="#455A64"/>
<path d="M114.35 57.6577C110.942 49.0525 106.398 40.6177 105.773 34.205L98.9854 34.4776C99.1274 36.9598 100.019 57.6179 104.83 65.7858C109.641 73.9536 125.704 93.0498 125.704 93.0498L131.356 78.5146C131.356 78.5146 117.763 66.2686 114.35 57.6577Z" fill="#FFBE9D"/>
<path d="M103.035 20.8456H100.065C100.065 20.8456 100.354 22.595 101.7 22.6916C103.047 22.7882 102.785 22.4814 102.785 22.4814L102.484 22.7598L100.633 23.1233C100.633 23.1233 100.723 24.566 101.945 24.7932L103.745 23.1233L103.035 20.8456Z" fill="#FFBE9D"/>
<path d="M111.169 20.5843C110.896 22.8222 110.868 22.6859 110.868 22.6859L108.153 24.9238L107.46 21.6294C107.415 21.4111 107.3 21.2137 107.131 21.0679C106.963 20.922 106.751 20.8359 106.528 20.8229L105.296 20.7434C105.296 20.7434 105.773 19.0394 104.222 19.1814C104.222 19.1814 103.37 18.9485 102.683 21.7998C101.933 24.9182 98.707 32.2454 98.9854 34.6934L105.87 34.9718C105.796 32.6998 107.67 30.2744 108.596 29.2293C108.875 28.9181 109.071 28.5408 109.164 28.133C109.291 27.5728 109.557 27.0534 109.936 26.6222C110.788 25.6793 112.578 23.981 112.578 23.981V18.7951C112.578 18.7951 111.43 18.4259 111.169 20.5843ZM105.648 25.5941L104.234 26.2359L104.472 24.7932L105.648 24.6796V25.5941Z" fill="#FFBE9D"/>
<path d="M104.16 26.3893C104.159 26.1847 104.182 25.9808 104.228 25.7815C104.296 25.3896 104.393 24.833 104.523 24.14L105 21.7203C105.113 21.2552 105.19 20.7825 105.233 20.306C105.233 19.8459 105.063 19.3177 104.569 19.2893C104.075 19.2609 103.711 19.596 103.473 19.9993C103.359 20.2088 103.268 20.4296 103.2 20.6582L102.978 21.3341L102.24 23.6856C102.018 24.3558 101.814 24.8898 101.672 25.2533C101.607 25.4551 101.514 25.6465 101.394 25.8213C101.427 25.6256 101.484 25.4348 101.564 25.2533C101.683 24.8784 101.859 24.3388 102.053 23.6686C102.246 22.9983 102.479 22.169 102.728 21.2943C102.802 21.0671 102.87 20.8399 102.944 20.607C103.013 20.3583 103.111 20.1182 103.234 19.8914C103.372 19.6517 103.553 19.4398 103.768 19.2666C103.888 19.1721 104.026 19.1028 104.173 19.0628C104.32 19.0228 104.474 19.0129 104.626 19.0337C104.778 19.0583 104.924 19.1102 105.057 19.187C105.186 19.2766 105.291 19.3954 105.364 19.5335C105.488 19.7878 105.546 20.0689 105.534 20.3514C105.487 20.844 105.402 21.332 105.279 21.8112L104.711 24.2252C104.557 24.9068 104.427 25.4634 104.325 25.844C104.293 26.0321 104.238 26.2154 104.16 26.3893Z" fill="#EB996E"/>
<path d="M105.568 25.6111C105.499 25.0573 105.471 24.4992 105.483 23.9412C105.483 23.714 105.449 23.4982 105.432 23.2994C105.441 23.1498 105.395 23.0021 105.302 22.8847C105.108 22.7427 104.876 22.7427 104.887 22.6916C104.898 22.6405 104.938 22.6518 105.029 22.6405C105.166 22.6212 105.305 22.6471 105.426 22.7143C105.511 22.7828 105.58 22.8693 105.627 22.9675C105.674 23.0658 105.699 23.1733 105.699 23.2823C105.742 23.5016 105.768 23.7237 105.779 23.9469C105.858 24.5105 105.785 25.085 105.568 25.6111Z" fill="#EB996E"/>
<path d="M108.942 24.3445C108.942 24.3445 108.755 24.5944 108.374 24.9125C107.894 25.3385 107.359 25.6995 106.784 25.986C106.185 26.2458 105.545 26.3977 104.893 26.4347C104.628 26.4863 104.356 26.4863 104.092 26.4347C104.337 26.3301 104.598 26.2668 104.864 26.2473C105.482 26.1541 106.085 25.9824 106.659 25.7361C107.224 25.4624 107.764 25.1393 108.272 24.7705C108.658 24.4751 108.914 24.3104 108.942 24.3445Z" fill="#EB996E"/>
<path d="M162.919 88.8579C162.919 88.8579 170.565 88.6307 175.143 87.2675C179.721 85.9043 197.295 81.7239 197.295 81.7239L225.496 77.0208L226.064 84.3139C226.064 84.3139 199.862 91.9762 194.773 93.72C189.684 95.4638 166.424 103.444 162.028 102.433L159.301 96.827L162.919 88.8579Z" fill="#FFBE9D"/>
<path d="M239.054 68.444C238.594 68.3418 236.311 69.3812 236.311 69.3812C236.528 69.1173 236.651 68.7881 236.659 68.4462C236.667 68.1043 236.561 67.7695 236.356 67.4954L233.221 69.0347C232.392 69.8752 231.518 70.6697 230.602 71.4146C229.16 72.7433 227.83 74.1891 226.626 75.7371L224.752 77.4809L225.916 84.3821C226.736 84.4505 227.562 84.342 228.336 84.064C229.307 83.6153 230.727 81.792 230.727 81.792L233.403 81.5648C233.714 81.5421 234.011 81.4252 234.255 81.2297C234.496 80.9945 234.681 80.7079 234.796 80.3912C234.911 80.0745 234.953 79.7359 234.919 79.4007C236.623 78.4351 235.629 77.2082 235.629 77.2082C236.167 77.1421 236.659 76.8716 237.004 76.4528C237.15 76.2259 237.22 75.9586 237.205 75.6892C237.189 75.4198 237.089 75.1622 236.919 74.9533C236.6 74.3853 234.147 74.5614 234.147 74.5614L234.016 73.84C234.016 73.84 237.765 70.8637 238.605 70.2162C239.446 69.5686 239.486 68.5406 239.054 68.444Z" fill="#FFBE9D"/>
<path d="M236.356 69.296C236.086 69.8343 235.698 70.3043 235.22 70.6706C234.734 71.0861 234.277 71.5339 233.851 72.011C233.379 72.6245 233.037 73.3281 232.846 74.0786C232.649 74.864 232.367 75.6258 232.005 76.3506C231.695 76.9301 231.314 77.4683 230.869 77.9523C230.569 78.2747 230.24 78.5694 229.887 78.8327C229.764 78.9373 229.623 79.0199 229.472 79.077C229.438 79.0372 230.006 78.6453 230.716 77.8103C231.126 77.3239 231.478 76.7922 231.767 76.2256C232.106 75.5187 232.376 74.7807 232.573 74.0218C232.773 73.2338 233.139 72.4977 233.647 71.8634C234.091 71.3841 234.574 70.9415 235.09 70.5399C235.537 70.1513 235.96 69.7359 236.356 69.296Z" fill="#EB996E"/>
<path d="M234.976 79.3837C234.594 79.6423 234.172 79.8343 233.726 79.9517C233.244 80.1137 232.745 80.2167 232.238 80.2584C231.938 80.281 231.636 80.281 231.335 80.2584C230.992 80.2345 230.661 80.1209 230.375 79.929C230.227 79.8233 230.106 79.6836 230.023 79.5214C229.94 79.3593 229.897 79.1796 229.898 78.9975C229.961 78.6706 230.138 78.3768 230.398 78.1682C230.605 77.97 230.859 77.8274 231.136 77.7535C231.386 77.6854 231.613 77.6343 231.823 77.5945C232.269 77.4599 232.734 77.406 233.198 77.4355C233.198 77.4695 232.687 77.5718 231.869 77.7933L231.21 77.9864C230.973 78.0589 230.758 78.1897 230.585 78.367C230.387 78.535 230.248 78.7619 230.188 79.0145C230.189 79.1482 230.223 79.2796 230.286 79.3974C230.349 79.5151 230.44 79.6157 230.551 79.6904C231.065 79.9575 231.646 80.0643 232.221 79.9971C232.709 79.9687 233.193 79.8887 233.664 79.7586C234.476 79.5484 234.959 79.3382 234.976 79.3837Z" fill="#EB996E"/>
<path d="M235.72 77.2082C235.423 77.3741 235.094 77.473 234.754 77.4979C234.392 77.5598 234.025 77.5864 233.658 77.5774C233.417 77.5947 233.175 77.5589 232.949 77.4725C232.724 77.3862 232.52 77.2514 232.352 77.0776C232.208 76.8731 232.126 76.6315 232.116 76.3816C232.106 76.1318 232.168 75.8844 232.295 75.669C232.486 75.3312 232.778 75.0613 233.13 74.8965C233.427 74.7235 233.763 74.6278 234.107 74.6182C234.107 74.6636 233.749 74.7772 233.232 75.0782C232.938 75.2466 232.698 75.4948 232.539 75.7939C232.444 75.9624 232.397 76.1541 232.404 76.3477C232.411 76.5413 232.471 76.7291 232.579 76.8902C232.723 77.0297 232.894 77.1385 233.082 77.2098C233.269 77.281 233.469 77.3134 233.669 77.3048C234.023 77.3281 234.378 77.3281 234.732 77.3048C235.058 77.2479 235.389 77.2157 235.72 77.2082Z" fill="#EB996E"/>
<path d="M233.868 81.4682C233.62 81.5922 233.354 81.6747 233.079 81.7125C232.432 81.8924 231.762 81.9728 231.091 81.951C230.977 81.9563 230.863 81.9361 230.758 81.8919C230.653 81.8477 230.559 81.7806 230.483 81.6954C230.36 81.5323 230.298 81.3315 230.307 81.1274C230.32 80.9609 230.369 80.7991 230.452 80.6538C230.534 80.5085 230.648 80.3832 230.784 80.2868C231.284 79.9858 231.647 80.1732 231.625 80.1959C231.368 80.2231 231.123 80.3128 230.909 80.4572C230.81 80.5417 230.729 80.6459 230.672 80.7633C230.616 80.8806 230.584 81.0085 230.58 81.1388C230.577 81.2797 230.621 81.4175 230.705 81.5307C230.756 81.5848 230.819 81.6263 230.889 81.6519C230.959 81.6775 231.034 81.6866 231.108 81.6784C231.755 81.693 232.402 81.6435 233.039 81.5307C233.309 81.4572 233.59 81.436 233.868 81.4682Z" fill="#EB996E"/>
<path d="M149.952 113.072C149.789 113.198 149.609 113.301 149.418 113.378C148.915 113.613 148.392 113.803 147.856 113.946C146.07 114.468 144.187 114.562 142.358 114.219C140.531 113.875 138.815 113.096 137.354 111.947C136.915 111.604 136.506 111.224 136.133 110.811C135.988 110.665 135.862 110.501 135.758 110.323C135.803 110.283 136.36 110.959 137.462 111.788C138.926 112.867 140.612 113.606 142.398 113.952C144.184 114.288 146.022 114.228 147.782 113.776C149.14 113.43 149.918 113.032 149.952 113.072Z" fill="#0C9B18"/>
<path d="M137.041 92.0671C137.041 92.0671 155.013 86.319 155.683 86.1372C156.353 85.9554 172.206 87.3698 172.206 87.3698C172.206 87.3698 171.536 97.8721 175.512 101.274L163.851 105.478L160.176 115.594C160.176 115.594 158.126 119.717 159.756 123.585C162.84 130.907 168.19 142.46 167.401 143.784C167.316 143.92 166.833 139.808 159.227 137.626C156.921 136.973 152.735 136.962 148.947 137.729C132.645 141.012 126.352 148.521 124.523 149.833C124.523 149.833 127.88 123.495 126.295 119.382C124.71 115.27 123.029 112.566 124.335 108.925C125.642 105.284 127.601 99.4 127.601 99.4L121.177 92.1296L130.152 77.2082L138.365 84.0242L137.041 92.0671Z" fill="#0C9B18"/>
<path d="M143.017 116.468C142.811 116.495 142.603 116.495 142.398 116.468C141.834 116.446 141.273 116.373 140.722 116.253C138.887 115.854 137.195 114.965 135.826 113.68C134.461 112.386 133.501 110.725 133.06 108.897C132.929 108.338 132.853 107.767 132.832 107.193C132.815 106.988 132.826 106.781 132.867 106.58C132.956 107.333 133.089 108.08 133.264 108.817C133.751 110.58 134.707 112.178 136.03 113.441C137.368 114.687 139 115.574 140.773 116.02C142.136 116.44 143.017 116.44 143.017 116.468Z" fill="#263238"/>
<path d="M126.141 94.2028C126.841 95.0963 127.275 96.1694 127.391 97.2984C127.604 98.4138 127.502 99.5664 127.096 100.627C127.206 99.5353 127.206 98.4354 127.096 97.3438C126.885 96.2673 126.565 95.2149 126.141 94.2028Z" fill="#263238"/>
<path d="M164.283 97.3154C164.283 97.3609 163.913 97.6165 163.368 98.1447C162.663 98.8278 162.094 99.6395 161.693 100.536C161.294 101.431 161.078 102.396 161.056 103.376C161.056 104.131 161.13 104.597 161.056 104.609C160.895 104.218 160.816 103.798 160.824 103.376C160.781 102.355 160.976 101.339 161.392 100.405C161.803 99.4709 162.418 98.6403 163.192 97.9743C163.507 97.6834 163.878 97.4593 164.283 97.3154Z" fill="#263238"/>
<g opacity="0.3">
<path d="M140.347 116.076C138.614 115.732 137.037 114.84 135.849 113.532C135.042 112.757 134.382 111.843 133.9 110.834C133.491 112.617 135.974 115.781 138.393 116.946C139.62 117.517 140.963 117.795 142.315 117.758C143.668 117.72 144.993 117.368 146.186 116.73C144.223 116.709 142.267 116.49 140.347 116.076Z" fill="black"/>
</g>
<path d="M162.357 129.129C162.357 129.163 161.886 128.805 160.954 128.385C159.628 127.813 158.2 127.515 156.757 127.51C154.609 127.497 152.482 127.928 150.509 128.777C148.115 129.855 145.832 131.164 143.693 132.685C139.748 135.419 135.541 137.754 131.134 139.654C129.43 140.376 128.044 140.892 127.073 141.228C126.59 141.404 126.21 141.523 125.937 141.602C125.809 141.652 125.675 141.688 125.539 141.71C125.66 141.642 125.787 141.586 125.92 141.546L127.022 141.12C127.982 140.75 129.362 140.211 131.038 139.461C135.413 137.515 139.596 135.165 143.534 132.441C145.689 130.906 147.993 129.593 150.412 128.521C152.422 127.674 154.587 127.257 156.768 127.3C158.236 127.324 159.682 127.659 161.011 128.283C161.493 128.508 161.945 128.792 162.357 129.129Z" fill="white"/>
<path d="M159.108 119.712C158.767 119.409 158.406 119.128 158.029 118.871C156.969 118.221 155.765 117.843 154.524 117.769C152.681 117.682 150.843 118.02 149.151 118.757C147.071 119.661 145.041 120.673 143.068 121.791C141.076 122.897 139.022 123.887 136.916 124.756C135.182 125.451 133.37 125.935 131.52 126.198C130.274 126.372 129.011 126.393 127.76 126.261C127.421 126.223 127.083 126.168 126.749 126.096C126.631 126.079 126.514 126.048 126.403 126.005C126.403 125.977 126.891 126.073 127.772 126.147C129.014 126.232 130.261 126.181 131.492 125.994C133.317 125.702 135.103 125.203 136.814 124.506C138.903 123.631 140.943 122.645 142.926 121.552C144.91 120.431 146.954 119.421 149.049 118.525C150.781 117.787 152.662 117.464 154.541 117.582C155.81 117.674 157.033 118.093 158.091 118.797C158.481 119.041 158.825 119.35 159.108 119.712Z" fill="white"/>
<path d="M135.116 112.555C135.116 112.555 134.997 112.674 134.752 112.85C134.605 112.96 134.449 113.059 134.287 113.146C134.08 113.272 133.865 113.386 133.645 113.486C133.071 113.756 132.472 113.967 131.856 114.117C131.099 114.296 130.326 114.395 129.549 114.412C128.771 114.411 127.994 114.329 127.232 114.168C126.612 114.04 126.007 113.85 125.426 113.6C125.202 113.506 124.984 113.4 124.773 113.282C124.608 113.201 124.45 113.106 124.301 112.998C124.051 112.833 123.921 112.731 123.932 112.714C123.943 112.697 124.5 113.026 125.505 113.407C126.083 113.624 126.678 113.793 127.283 113.912C128.033 114.049 128.793 114.116 129.555 114.111C130.31 114.094 131.061 114.005 131.799 113.844C132.403 113.707 132.994 113.517 133.565 113.276C134.537 112.884 135.082 112.509 135.116 112.555Z" fill="white"/>
<path d="M161.818 111.129C161.752 111.203 161.678 111.268 161.596 111.322C161.371 111.492 161.131 111.642 160.88 111.771C159.955 112.252 158.943 112.544 157.904 112.629C156.367 112.75 154.821 112.608 153.332 112.208C151.628 111.799 149.861 111.135 147.958 110.595C144.695 109.688 141.28 109.468 137.927 109.948C136.91 110.092 135.903 110.299 134.911 110.567C134.213 110.754 133.826 110.874 133.821 110.851C133.815 110.828 133.906 110.8 134.088 110.732C134.27 110.663 134.531 110.561 134.883 110.459C135.867 110.147 136.874 109.908 137.893 109.743C141.276 109.195 144.738 109.389 148.038 110.311C149.958 110.879 151.73 111.527 153.394 111.941C154.855 112.348 156.373 112.509 157.887 112.419C158.906 112.352 159.903 112.098 160.829 111.669C161.482 111.356 161.8 111.101 161.818 111.129Z" fill="white"/>
<path d="M161.346 102.604C161.227 102.636 161.105 102.655 160.983 102.66C160.744 102.66 160.415 102.728 159.932 102.763C158.64 102.794 157.349 102.701 156.075 102.484C154.462 102.223 152.576 101.746 150.497 101.184C148.268 100.523 145.989 100.048 143.681 99.7635C143.075 99.7137 142.466 99.6948 141.858 99.7067C141.557 99.7067 141.262 99.7067 140.966 99.7351L140.097 99.8374C138.991 99.9944 137.904 100.267 136.854 100.65C134.832 101.365 133.065 102.189 131.515 102.711C130.301 103.157 129.032 103.436 127.743 103.541C127.394 103.572 127.042 103.572 126.692 103.541C126.568 103.544 126.445 103.533 126.323 103.507C126.446 103.497 126.57 103.497 126.692 103.507C127.04 103.508 127.387 103.487 127.732 103.444C129.004 103.297 130.252 102.989 131.447 102.53C132.975 101.99 134.724 101.149 136.763 100.411C137.827 100.015 138.929 99.7316 140.052 99.5647L140.944 99.4568C141.245 99.4568 141.546 99.4568 141.852 99.4568C142.47 99.4447 143.088 99.4636 143.704 99.5136C146.032 99.8 148.331 100.285 150.577 100.962C152.65 101.53 154.519 102.041 156.121 102.325C157.38 102.559 158.657 102.681 159.937 102.689L160.983 102.649C161.102 102.62 161.224 102.604 161.346 102.604Z" fill="white"/>
<path d="M166.992 87.3641C167.043 87.3925 166.464 88.2218 165.919 89.727C165.205 91.6908 165.009 93.8055 165.351 95.867C165.721 97.9219 166.604 99.8501 167.918 101.473C168.929 102.717 169.741 103.319 169.701 103.365C169.497 103.251 169.306 103.114 169.133 102.956C168.638 102.546 168.18 102.094 167.765 101.604C166.375 99.9844 165.441 98.0238 165.061 95.9238C164.709 93.8209 164.933 91.6619 165.708 89.6758C165.943 89.0836 166.23 88.5134 166.566 87.9718C166.684 87.7532 166.827 87.5492 166.992 87.3641Z" fill="white"/>
<path d="M137.03 89.176C136.871 89.2423 136.702 89.2807 136.53 89.2896C136.066 89.3668 135.597 89.418 135.127 89.443C134.424 89.4883 133.718 89.4328 133.031 89.2782C132.166 89.0814 131.377 88.6374 130.759 88.0002C130.1 87.3527 129.623 86.6484 129.095 86.0634C128.658 85.5415 128.14 85.0928 127.561 84.7342C127.018 84.4225 126.409 84.2434 125.784 84.2117C125.949 84.153 126.126 84.1336 126.3 84.1549C126.779 84.182 127.245 84.318 127.664 84.5525C128.284 84.8969 128.838 85.3489 129.299 85.8873C129.828 86.4553 130.333 87.171 130.964 87.7901C131.54 88.385 132.269 88.8095 133.071 89.017C133.733 89.1763 134.413 89.2489 135.093 89.2328C136.32 89.176 137.03 89.1022 137.03 89.176Z" fill="white"/>
<path d="M135.888 262.143C135.809 262.143 135.741 256.191 135.741 248.846C135.741 241.502 135.809 235.55 135.888 235.55C135.968 235.55 136.036 241.502 136.036 248.846C136.036 256.191 135.973 262.143 135.888 262.143Z" fill="#263238"/>
<path d="M138.405 255.31C138.319 255.31 138.257 249.358 138.257 242.013C138.257 234.669 138.319 228.717 138.405 228.717C138.49 228.717 138.552 234.669 138.552 242.013C138.552 249.358 138.484 255.31 138.405 255.31Z" fill="#263238"/>
<path d="M255.782 271.01C255.782 271.089 204.832 271.158 142.006 271.158C79.1792 271.158 28.2183 271.089 28.2183 271.01C28.2183 270.93 79.1565 270.862 142.006 270.862C204.855 270.862 255.782 270.936 255.782 271.01Z" fill="#263238"/>
</svg>
